<svg xmlns="http://www.w3.org/2000/svg" xmlns:xlink="http://www.w3.org/1999/xlink" viewBox="0 0 181.9 104.69"><defs><style>.cls-1{fill:url(#linear-gradient);}.cls-2,.cls-4{fill:#110a2b;}.cls-2{opacity:0.5;}.cls-3{fill:#203253;}.cls-5{fill:#f01166;}.cls-6{fill:#101e39;}.cls-7{fill:none;stroke:#283f69;stroke-miterlimit:10;stroke-width:1.28px;}.cls-8{fill:#24385e;}.cls-9{fill:url(#linear-gradient-2);}</style><linearGradient id="linear-gradient" x1="1868.66" y1="455.52" x2="1875.5" y2="440.23" gradientTransform="translate(751.39 -1782.74) rotate(94.42)" gradientUnits="userSpaceOnUse"><stop offset="0" stop-color="#101e39"/><stop offset="1" stop-color="#203253"/></linearGradient><linearGradient id="linear-gradient-2" x1="1940.8" y1="558.94" x2="1950.24" y2="537.87" gradientTransform="translate(1738.08 -1098.72) rotate(129.92)" xlink:href="#linear-gradient"/></defs><g id="Layer_2" data-name="Layer 2"><g id="WELCOME"><path class="cls-1" d="M178.79,35,158.91,71.89s-2.4,3.74-6.85,1.21-2.42-6.35-2.42-6.35l22.59-35.83a3.32,3.32,0,0,1,4.87-1.14A4.26,4.26,0,0,1,178.79,35Z"/><path class="cls-2" d="M178.79,35a4.26,4.26,0,0,0-1.69-5.26,3.32,3.32,0,0,0-4.87,1.14l-3.44,5.71-1.1,1,3.33-3L169,40l4.11-3.51L169.86,44l5.7-6.85-1.34,4.52,3.24-4.2h0Z"/><path class="cls-3" d="M179,32.36c-.73-3.42-4.32-3.84-4.32-3.84l-.41-.06c-.95.62-1.18,2.16-.47,4a7.89,7.89,0,0,0,2.47,3.28C176.41,35.71,179.72,35.72,179,32.36Z"/><ellipse class="cls-4" cx="176.38" cy="31.99" rx="1.51" ry="2.58" transform="translate(13.88 107.67) rotate(-35.25)"/><path class="cls-5" d="M176.88,31.79A2,2,0,0,0,175,30.51c-.68.22-.75.38-.32,1.48a4.07,4.07,0,0,0,1.74,2C177.1,33.8,177.32,32.88,176.88,31.79Z"/><path class="cls-6" d="M54.55,61c.06-1.46-5.23-54.54-5.23-54.54l5.47-.79,5.58,54.71Z"/><polygon class="cls-3" points="146.65 85.17 181.9 16.39 154.31 15.21 0 94.23 146.65 85.17"/><polyline class="cls-7" points="56.92 59.86 109.01 59.86 82.26 75.77 130.31 73.98 142.53 61.18 159.09 60.89"/><polyline class="cls-7" points="169.6 15.86 142.5 39.64 100.1 38.36"/><polygon class="cls-6" points="171.24 1.97 181.9 16.39 154.31 15.21 0 94.23 30.26 33.88 142.51 0 171.24 1.97"/><ellipse class="cls-4" cx="37.36" cy="39.64" rx="2.82" ry="1.95" transform="translate(-5.93 72.72) rotate(-84.08)"/><ellipse class="cls-4" cx="67.35" cy="30.3" rx="2.82" ry="1.95" transform="translate(30.27 94.17) rotate(-84.08)"/><ellipse class="cls-4" cx="97.35" cy="20.96" rx="2.82" ry="1.95" transform="translate(66.47 115.63) rotate(-84.08)"/><ellipse class="cls-4" cx="127.34" cy="11.62" rx="2.82" ry="1.95" transform="translate(102.66 137.09) rotate(-84.08)"/><path class="cls-8" d="M86.46,88.55,99.8,80.92h2.71s1.12,16.83-14.24,20.57l-1.81.35Z"/><path class="cls-6" d="M100.15,80.92H99.8L86.46,88.55v13.29C99.66,98.63,100.25,84.76,100.15,80.92Z"/><path class="cls-8" d="M40.74,91.4l15.38-7.64h3.12s1.29,16.84-16.42,20.58l-2.08.35Z"/><path class="cls-6" d="M56.52,83.76h-.4L40.74,91.4v13.29C56,101.48,56.63,87.61,56.52,83.76Z"/><path class="cls-8" d="M122.16,86.78l9.14-7.64h1.85s.77,16.84-9.76,20.58l-1.23.35Z"/><path class="cls-6" d="M131.54,79.14h-.24l-9.14,7.64v13.29C131.2,96.85,131.6,83,131.54,79.14Z"/><path class="cls-9" d="M120.62,29.52,30.15,74.83s-6.58,3.47-9.54-2.92,3.25-10.25,3.25-10.25l92.7-42s4.47-2.1,6.37,2.62A5.86,5.86,0,0,1,120.62,29.52Z"/><path class="cls-2" d="M120.62,29.52a5.86,5.86,0,0,0,2.31-7.25c-1.9-4.72-6.37-2.62-6.37-2.62l-8.44,3.65-2.07.3,6.17-.75-6.58,4.31,7.42-.64-9.63,5.91L115.3,29.3l-5.11,4,7-2.12h0Z"/><path class="cls-3" d="M122.93,22.27c-1.9-4.72-6.37-2.62-6.37-2.62l-.53.23c-1,1.68-.78,4.23.62,6.46a7.19,7.19,0,0,0,4,3.17A5.84,5.84,0,0,0,122.93,22.27Z"/><ellipse class="cls-4" cx="119.63" cy="23.72" rx="2.45" ry="3.33" transform="translate(5.69 67.21) rotate(-32.11)"/><path class="cls-5" d="M120.18,23a3.58,3.58,0,0,0-2.71-1.79,3.25,3.25,0,0,0,.08,3.79,3.6,3.6,0,0,0,2.72,1.79A3.27,3.27,0,0,0,120.18,23Z"/></g></g></svg>