<svg xmlns="http://www.w3.org/2000/svg" xmlns:xlink="http://www.w3.org/1999/xlink" viewBox="0 0 288.64 191.97"><defs><style>.cls-1{fill:#101e39;}.cls-2{fill:#203253;}.cls-3{fill:url(#linear-gradient);}.cls-4,.cls-5{fill:#110a2b;}.cls-4{opacity:0.5;}.cls-6{fill:#f01166;}.cls-7{fill:url(#linear-gradient-2);}.cls-8{fill:url(#linear-gradient-3);}.cls-9{fill:none;stroke:#283f69;stroke-miterlimit:10;stroke-width:1.28px;}.cls-10{fill:url(#linear-gradient-4);}.cls-11{fill:#23385c;}.cls-12{fill:#2b4270;}.cls-13{fill:#006cf0;}.cls-14{fill:#273e66;}</style><linearGradient id="linear-gradient" x1="145.93" y1="257.07" x2="152.78" y2="241.78" gradientTransform="translate(374.48 216.46) rotate(148.37)" gradientUnits="userSpaceOnUse"><stop offset="0" stop-color="#101e39"/><stop offset="1" stop-color="#203253"/></linearGradient><linearGradient id="linear-gradient-2" x1="110.28" y1="199.94" x2="117.13" y2="184.65" xlink:href="#linear-gradient"/><linearGradient id="linear-gradient-3" x1="74.14" y1="144.92" x2="80.98" y2="129.63" xlink:href="#linear-gradient"/><linearGradient id="linear-gradient-4" x1="153.17" y1="25.23" x2="153.22" y2="48.32" gradientUnits="userSpaceOnUse"><stop offset="0" stop-color="#000205"/><stop offset="0.27" stop-color="#000c1b"/><stop offset="1" stop-color="#171d42"/></linearGradient></defs><g id="Layer_2" data-name="Layer 2"><g id="WELCOME"><path class="cls-1" d="M127.18,76.69c.54-1.36,13.29-53.16,13.29-53.16l5.42,1.08L132.88,78Z"/><path class="cls-1" d="M137.87,113c.54-1.35,13.29-53.16,13.29-53.16l5.42,1.09-13,53.43Z"/><path class="cls-1" d="M207.84,133.88c.55-1.36,13.29-53.16,13.29-53.16l5.43,1.08-13,53.43Z"/><polygon class="cls-2" points="55.95 177.59 9.91 87.78 0 68.45 53.96 71.79 288.64 191.97 55.95 177.59"/><polygon class="cls-1" points="16.91 45.58 0 68.45 53.96 71.79 288.64 191.97 240.62 96.2 62.51 42.45 16.91 45.58"/><path class="cls-3" d="M127.67,89.35,108.15,92.9s-4.44.26-5-4.82,3.7-5.69,3.7-5.69l20.3-.76a3.31,3.31,0,0,1,3.78,3.26A4.24,4.24,0,0,1,127.67,89.35Z"/><path class="cls-4" d="M127.67,89.35a4.24,4.24,0,0,0,3.25-4.46,3.31,3.31,0,0,0-3.78-3.26l-6.64.57-1.5-.27,4.42.9-5.52,1.46,5.25,1.26-8,1.85,8.89.58-4.44,1.57,5.3.15h0Z"/><path class="cls-2" d="M130.92,84.89a3.31,3.31,0,0,0-3.78-3.26l-.41,0a4.7,4.7,0,0,0-1.06,4.6,5.19,5.19,0,0,0,2,3.09A4.24,4.24,0,0,0,130.92,84.89Z"/><ellipse class="cls-5" cx="128.32" cy="85.13" rx="1.78" ry="2.42" transform="translate(-16.47 32.69) rotate(-13.65)"/><path class="cls-6" d="M128.86,84.78a2.6,2.6,0,0,0-1.46-1.86,2.38,2.38,0,0,0-.81,2.63,2.58,2.58,0,0,0,1.46,1.85A2.36,2.36,0,0,0,128.86,84.78Z"/><path class="cls-7" d="M188,119.3l-19.52,3.55s-4.44.26-5-4.82,3.7-5.69,3.7-5.69l20.3-.76a3.31,3.31,0,0,1,3.78,3.26A4.25,4.25,0,0,1,188,119.3Z"/><path class="cls-4" d="M188,119.3a4.25,4.25,0,0,0,3.25-4.46,3.31,3.31,0,0,0-3.78-3.26l-6.64.57-1.5-.27,4.42.9-5.52,1.46,5.25,1.26-8,1.85,8.88.58-4.43,1.57,5.3.15h0Z"/><path class="cls-2" d="M191.24,114.84a3.31,3.31,0,0,0-3.78-3.26l-.42,0a4.75,4.75,0,0,0-1.06,4.6,5.28,5.28,0,0,0,2,3.09A4.25,4.25,0,0,0,191.24,114.84Z"/><ellipse class="cls-5" cx="188.64" cy="115.08" rx="1.78" ry="2.42" transform="translate(-21.83 47.77) rotate(-13.65)"/><path class="cls-6" d="M189.17,114.73a2.59,2.59,0,0,0-1.45-1.86,2.37,2.37,0,0,0-.81,2.63,2.58,2.58,0,0,0,1.46,1.85A2.34,2.34,0,0,0,189.17,114.73Z"/><path class="cls-8" d="M247.62,147.19l-19.52,3.55s-4.44.26-5-4.82,3.7-5.7,3.7-5.7l20.3-.76a3.32,3.32,0,0,1,3.78,3.27A4.25,4.25,0,0,1,247.62,147.19Z"/><path class="cls-4" d="M247.62,147.19a4.25,4.25,0,0,0,3.25-4.46,3.32,3.32,0,0,0-3.78-3.27l-6.64.57-1.5-.26,4.42.9-5.52,1.45,5.25,1.27-8,1.85,8.89.58-4.44,1.57,5.3.15h0Z"/><path class="cls-2" d="M250.87,142.73a3.32,3.32,0,0,0-3.78-3.27l-.42,0a4.71,4.71,0,0,0-1,4.59,5.22,5.22,0,0,0,2,3.1A4.24,4.24,0,0,0,250.87,142.73Z"/><ellipse class="cls-5" cx="248.27" cy="142.97" rx="1.78" ry="2.42" transform="translate(-26.73 62.64) rotate(-13.65)"/><path class="cls-6" d="M248.81,142.61a2.61,2.61,0,0,0-1.46-1.85,2.36,2.36,0,0,0-.81,2.63,2.58,2.58,0,0,0,1.46,1.85A2.38,2.38,0,0,0,248.81,142.61Z"/><polyline class="cls-9" points="196.27 186.26 177.35 169.88 135.6 169.88 126.75 158.08 85 158.08 78.54 146.53 97.65 146.53 73.2 117.21 58.02 117.21 32.72 87.26 9.91 87.78"/><path class="cls-5" d="M89.47,57.19a39.46,39.46,0,0,0,.18,4.5l157.94,69.68L232.7,105.05Z"/><polygon class="cls-5" points="18.27 48.13 13.93 53.48 56.67 53.48 58.51 46.47 18.27 48.13"/><polygon class="cls-1" points="137.81 71.66 138.27 83.24 147.15 88.27 146.61 74.4 137.81 71.66"/><polygon class="cls-1" points="192.3 89.14 193.12 110.21 202.01 115.24 201.09 91.87 192.3 89.14"/><path class="cls-10" d="M141.7,25.22s10.34,1.6,12,3.94,1.09,4.92,2,6.15,6.31,2.84,6.13,4.92c-.46,5.27,5.31,7.46,5.31,7.46s-6.36-.54-7.26-2.45-6.54-3.36-7.26-6-13.34-4.66-13.34-4.66Z"/><polygon class="cls-2" points="229.59 57.91 194.48 27.97 195.15 14.53 220.58 17.08 283.4 53.17 257.22 62.87 229.59 57.91"/><polygon class="cls-11" points="257.22 62.87 196.41 14.98 194.48 27.97 229.59 57.91 257.22 62.87 257.22 62.87"/><path class="cls-1" d="M235.36,15.57c.78-.13,6.78-5.1,6.78-5.1L272.5,25.82l5.88,10.77Z"/><path class="cls-1" d="M261.14,32.64c.14-.47,1.55-17.43,1.55-17.43l2.51,1.68L264,32.19Z"/><polygon class="cls-1" points="194.27 0 196.41 14.98 220.58 17.08 283.4 53.17 283.4 34.93 220.58 3.86 194.27 0"/><polygon class="cls-12" points="194.27 0 193.5 9.71 194.48 27.97 196.41 14.98 194.27 0"/><ellipse class="cls-2" cx="231.74" cy="15.56" rx="3.51" ry="1.78" transform="translate(211.85 246.97) rotate(-88.93)"/><ellipse class="cls-13" cx="231.74" cy="15.56" rx="2.42" ry="1.22" transform="translate(211.85 246.97) rotate(-88.93)"/><ellipse class="cls-2" cx="246.42" cy="23.17" rx="3.51" ry="1.78" transform="translate(218.65 269.11) rotate(-88.93)"/><ellipse class="cls-13" cx="246.42" cy="23.17" rx="2.42" ry="1.22" transform="translate(218.65 269.11) rotate(-88.93)"/><ellipse class="cls-2" cx="261.1" cy="30.77" rx="3.51" ry="1.78" transform="translate(225.45 291.25) rotate(-88.93)"/><ellipse class="cls-13" cx="261.1" cy="30.77" rx="2.42" ry="1.22" transform="matrix(0.02, -1, 1, 0.02, 225.45, 291.25)"/><ellipse class="cls-2" cx="275.78" cy="38.38" rx="3.51" ry="1.78" transform="translate(232.25 313.39) rotate(-88.93)"/><ellipse class="cls-13" cx="275.78" cy="38.38" rx="2.42" ry="1.22" transform="translate(232.25 313.39) rotate(-88.93)"/><path class="cls-14" d="M201.34,23.77a.73.73,0,0,0-.72-.22l-.43.16L198.06,31l1.07.91,2-6.7,18.7,16.57-2.71,5.43,1,.85,3.3-6.59Zm0,.66v0Z"/><path class="cls-14" d="M211.1,19.76a.73.73,0,0,0,.12.86l22.4,15.57,31.61,7.1.12-.49-2.29-1.31L234.15,35l-20.26-14,17.19,2.17-2.89-1.66-16.3-2.06A.74.74,0,0,0,211.1,19.76Zm.59.9h0Z"/></g></g></svg>