<svg xmlns="http://www.w3.org/2000/svg" xmlns:xlink="http://www.w3.org/1999/xlink" viewBox="0 0 630.24 395.98"><defs><style>.cls-1,.cls-10,.cls-11,.cls-12,.cls-2,.cls-3,.cls-4,.cls-5,.cls-6,.cls-7,.cls-79,.cls-8,.cls-80,.cls-81,.cls-82,.cls-83,.cls-9{stroke:#ffcfe2;}.cls-1,.cls-10,.cls-11,.cls-12,.cls-13,.cls-14,.cls-15,.cls-16,.cls-17,.cls-18,.cls-19,.cls-2,.cls-20,.cls-21,.cls-22,.cls-23,.cls-24,.cls-25,.cls-26,.cls-27,.cls-28,.cls-29,.cls-3,.cls-30,.cls-31,.cls-32,.cls-33,.cls-34,.cls-35,.cls-36,.cls-37,.cls-38,.cls-39,.cls-4,.cls-40,.cls-41,.cls-42,.cls-43,.cls-44,.cls-45,.cls-46,.cls-47,.cls-48,.cls-49,.cls-5,.cls-50,.cls-51,.cls-52,.cls-53,.cls-54,.cls-55,.cls-56,.cls-57,.cls-58,.cls-59,.cls-6,.cls-60,.cls-61,.cls-62,.cls-63,.cls-64,.cls-65,.cls-66,.cls-67,.cls-68,.cls-69,.cls-7,.cls-70,.cls-71,.cls-72,.cls-73,.cls-74,.cls-75,.cls-76,.cls-77,.cls-78,.cls-79,.cls-8,.cls-80,.cls-81,.cls-82,.cls-83,.cls-9{stroke-miterlimit:10;}.cls-1,.cls-10,.cls-11,.cls-5,.cls-6,.cls-7,.cls-79,.cls-8,.cls-80,.cls-9{stroke-width:1.64px;}.cls-1{fill:url(#linear-gradient);}.cls-2{stroke-width:1.61px;fill:url(#linear-gradient-2);}.cls-3,.cls-9{fill:none;}.cls-3,.cls-4{stroke-width:1.55px;}.cls-4{fill:url(#linear-gradient-3);}.cls-5{fill:url(#linear-gradient-4);}.cls-6{fill:url(#linear-gradient-5);}.cls-7{fill:url(#linear-gradient-6);}.cls-8{fill:url(#linear-gradient-7);}.cls-10{fill:url(#linear-gradient-8);}.cls-11{fill:url(#linear-gradient-9);}.cls-12{stroke-width:1.58px;fill:url(#linear-gradient-10);}.cls-13,.cls-14,.cls-15,.cls-16,.cls-17,.cls-18,.cls-19,.cls-20,.cls-21,.cls-22,.cls-23,.cls-24,.cls-25,.cls-26,.cls-27,.cls-28,.cls-29,.cls-30,.cls-31,.cls-32,.cls-33,.cls-34,.cls-35,.cls-36,.cls-37,.cls-38,.cls-39,.cls-40,.cls-41,.cls-42,.cls-43,.cls-44,.cls-45,.cls-46,.cls-47,.cls-48,.cls-49,.cls-50,.cls-51,.cls-52,.cls-53,.cls-54,.cls-55,.cls-56,.cls-57,.cls-58,.cls-59,.cls-60,.cls-61,.cls-62,.cls-63,.cls-64,.cls-65,.cls-66,.cls-67,.cls-68,.cls-69,.cls-70,.cls-71,.cls-72,.cls-73,.cls-74,.cls-75,.cls-76,.cls-77,.cls-78{fill:#ffcfe2;stroke-width:5px;}.cls-13{stroke:url(#linear-gradient-11);}.cls-14{stroke:url(#linear-gradient-12);}.cls-15{stroke:url(#linear-gradient-13);}.cls-16{stroke:url(#linear-gradient-14);}.cls-17{stroke:url(#linear-gradient-15);}.cls-18{stroke:url(#linear-gradient-16);}.cls-19{stroke:url(#linear-gradient-17);}.cls-20{stroke:url(#linear-gradient-18);}.cls-21{stroke:url(#linear-gradient-19);}.cls-22{stroke:url(#linear-gradient-20);}.cls-23{stroke:url(#linear-gradient-21);}.cls-24{stroke:url(#linear-gradient-22);}.cls-25{stroke:url(#linear-gradient-23);}.cls-26{stroke:url(#linear-gradient-24);}.cls-27{stroke:url(#linear-gradient-25);}.cls-28{stroke:url(#linear-gradient-26);}.cls-29{stroke:url(#linear-gradient-27);}.cls-30{stroke:url(#linear-gradient-28);}.cls-31{stroke:url(#linear-gradient-29);}.cls-32{stroke:url(#linear-gradient-30);}.cls-33{stroke:url(#linear-gradient-31);}.cls-34{stroke:url(#linear-gradient-32);}.cls-35{stroke:url(#linear-gradient-33);}.cls-36{stroke:url(#linear-gradient-34);}.cls-37{stroke:url(#linear-gradient-35);}.cls-38{stroke:url(#linear-gradient-36);}.cls-39{stroke:url(#linear-gradient-37);}.cls-40{stroke:url(#linear-gradient-38);}.cls-41{stroke:url(#linear-gradient-39);}.cls-42{stroke:url(#linear-gradient-40);}.cls-43{stroke:url(#linear-gradient-41);}.cls-44{stroke:url(#linear-gradient-42);}.cls-45{stroke:url(#linear-gradient-43);}.cls-46{stroke:url(#linear-gradient-44);}.cls-47{stroke:url(#linear-gradient-45);}.cls-48{stroke:url(#linear-gradient-46);}.cls-49{stroke:url(#linear-gradient-47);}.cls-50{stroke:url(#linear-gradient-48);}.cls-51{stroke:url(#linear-gradient-49);}.cls-52{stroke:url(#linear-gradient-50);}.cls-53{stroke:url(#linear-gradient-51);}.cls-54{stroke:url(#linear-gradient-52);}.cls-55{stroke:url(#linear-gradient-53);}.cls-56{stroke:url(#linear-gradient-54);}.cls-57{stroke:url(#linear-gradient-55);}.cls-58{stroke:url(#linear-gradient-56);}.cls-59{stroke:url(#linear-gradient-57);}.cls-60{stroke:url(#linear-gradient-58);}.cls-61{stroke:url(#linear-gradient-59);}.cls-62{stroke:url(#linear-gradient-60);}.cls-63{stroke:url(#linear-gradient-61);}.cls-64{stroke:url(#linear-gradient-62);}.cls-65{stroke:url(#linear-gradient-63);}.cls-66{stroke:url(#linear-gradient-64);}.cls-67{stroke:url(#linear-gradient-65);}.cls-68{stroke:url(#linear-gradient-66);}.cls-69{stroke:url(#linear-gradient-67);}.cls-70{stroke:url(#linear-gradient-68);}.cls-71{stroke:url(#linear-gradient-69);}.cls-72{stroke:url(#linear-gradient-70);}.cls-73{stroke:url(#linear-gradient-71);}.cls-74{stroke:url(#linear-gradient-72);}.cls-75{stroke:url(#linear-gradient-73);}.cls-76{stroke:url(#linear-gradient-74);}.cls-77{stroke:url(#linear-gradient-75);}.cls-78{stroke:url(#linear-gradient-76);}.cls-79{fill:url(#linear-gradient-77);}.cls-80{fill:url(#linear-gradient-78);}.cls-81,.cls-82,.cls-83{stroke-width:0.85px;}.cls-81{fill:url(#linear-gradient-79);}.cls-82{fill:url(#linear-gradient-80);}.cls-83{fill:url(#linear-gradient-81);}</style><linearGradient id="linear-gradient" x1="268.35" y1="72.63" x2="268.35" y2="172.25" gradientUnits="userSpaceOnUse"><stop offset="0" stop-color="#000914"/><stop offset="1" stop-color="#0f132b"/></linearGradient><linearGradient id="linear-gradient-2" x1="253.33" y1="359.6" x2="434.51" y2="359.6" gradientTransform="translate(26.87 79.14) rotate(-45.58)" xlink:href="#linear-gradient"/><linearGradient id="linear-gradient-3" x1="64.36" y1="35.12" x2="629.12" y2="35.12" xlink:href="#linear-gradient"/><linearGradient id="linear-gradient-4" x1="30.16" y1="72.88" x2="56.72" y2="72.88" xlink:href="#linear-gradient"/><linearGradient id="linear-gradient-5" x1="49.28" y1="305.13" x2="475.58" y2="305.13" xlink:href="#linear-gradient"/><linearGradient id="linear-gradient-6" x1="187.49" y1="305.13" x2="598.56" y2="305.13" xlink:href="#linear-gradient"/><linearGradient id="linear-gradient-7" x1="-78.16" y1="21.74" x2="102.65" y2="21.74" gradientTransform="translate(26.87 79.14) rotate(-45.58)" xlink:href="#linear-gradient"/><linearGradient id="linear-gradient-8" x1="65.99" y1="292.83" x2="225.23" y2="292.83" xlink:href="#linear-gradient"/><linearGradient id="linear-gradient-9" x1="214.03" y1="292.83" x2="572.99" y2="292.83" xlink:href="#linear-gradient"/><linearGradient id="linear-gradient-10" x1="-67.11" y1="33.9" x2="86.12" y2="33.9" gradientTransform="translate(26.87 79.14) rotate(-45.58)" xlink:href="#linear-gradient"/><linearGradient id="linear-gradient-11" x1="404.15" y1="127.24" x2="466.88" y2="127.24" xlink:href="#linear-gradient"/><linearGradient id="linear-gradient-12" x1="404.62" y1="118.59" x2="463.18" y2="118.59" gradientTransform="translate(43.41 -104.68) rotate(14.47)" xlink:href="#linear-gradient"/><linearGradient id="linear-gradient-13" x1="440.72" y1="148.42" x2="502.34" y2="148.42" xlink:href="#linear-gradient"/><linearGradient id="linear-gradient-14" x1="442.2" y1="138.33" x2="502.11" y2="138.33" gradientTransform="translate(562.54 -345.3) rotate(84.26)" xlink:href="#linear-gradient"/><linearGradient id="linear-gradient-15" x1="353.92" y1="99.91" x2="415.53" y2="99.91" xlink:href="#linear-gradient"/><linearGradient id="linear-gradient-16" x1="355.4" y1="89.81" x2="415.31" y2="89.81" gradientTransform="translate(436.15 -302.59) rotate(84.26)" xlink:href="#linear-gradient"/><linearGradient id="linear-gradient-17" x1="204.25" y1="121.96" x2="266.27" y2="121.96" xlink:href="#linear-gradient"/><linearGradient id="linear-gradient-18" x1="204.55" y1="112.28" x2="264.23" y2="112.28" gradientTransform="translate(17.65 -31.14) rotate(7.9)" xlink:href="#linear-gradient"/><linearGradient id="linear-gradient-19" x1="381.08" y1="139.79" x2="443.85" y2="139.79" xlink:href="#linear-gradient"/><linearGradient id="linear-gradient-20" x1="385.01" y1="131.27" x2="443.36" y2="131.27" gradientTransform="translate(430.78 -302.9) rotate(74.6)" xlink:href="#linear-gradient"/><linearGradient id="linear-gradient-21" x1="380.55" y1="120.65" x2="443.34" y2="120.65" xlink:href="#linear-gradient"/><linearGradient id="linear-gradient-22" x1="381.1" y1="112.62" x2="438.47" y2="112.62" gradientTransform="translate(59.68 -128.28) rotate(19.16)" xlink:href="#linear-gradient"/><linearGradient id="linear-gradient-23" x1="304.96" y1="112.79" x2="367.7" y2="112.79" xlink:href="#linear-gradient"/><linearGradient id="linear-gradient-24" x1="308.71" y1="104.17" x2="367.23" y2="104.17" gradientTransform="matrix(0.25, 0.97, -0.97, 0.25, 353.11, -249.16)" xlink:href="#linear-gradient"/><linearGradient id="linear-gradient-25" x1="306.19" y1="100.36" x2="368.94" y2="100.36" xlink:href="#linear-gradient"/><linearGradient id="linear-gradient-26" x1="309.95" y1="91.74" x2="368.46" y2="91.74" gradientTransform="translate(342.01 -259.64) rotate(75.32)" xlink:href="#linear-gradient"/><linearGradient id="linear-gradient-27" x1="344.1" y1="129.35" x2="406.84" y2="129.35" xlink:href="#linear-gradient"/><linearGradient id="linear-gradient-28" x1="347.85" y1="120.73" x2="406.37" y2="120.73" gradientTransform="translate(398.35 -274.66) rotate(75.32)" xlink:href="#linear-gradient"/><linearGradient id="linear-gradient-29" x1="347" y1="114.73" x2="409.76" y2="114.73" xlink:href="#linear-gradient"/><linearGradient id="linear-gradient-30" x1="347.55" y1="106.77" x2="404.74" y2="106.77" gradientTransform="translate(58.34 -121.02) rotate(19.78)" xlink:href="#linear-gradient"/><linearGradient id="linear-gradient-31" x1="251.03" y1="114.52" x2="313.78" y2="114.52" xlink:href="#linear-gradient"/><linearGradient id="linear-gradient-32" x1="254.79" y1="105.9" x2="313.3" y2="105.9" gradientTransform="translate(314.52 -195.71) rotate(75.32)" xlink:href="#linear-gradient"/><linearGradient id="linear-gradient-33" x1="252.46" y1="98.7" x2="315.17" y2="98.7" xlink:href="#linear-gradient"/><linearGradient id="linear-gradient-34" x1="252.92" y1="90" x2="311.56" y2="90" gradientTransform="translate(30.46 -66.09) rotate(14.11)" xlink:href="#linear-gradient"/><linearGradient id="linear-gradient-35" x1="179.36" y1="156.82" x2="242.11" y2="156.82" xlink:href="#linear-gradient"/><linearGradient id="linear-gradient-36" x1="183.12" y1="148.2" x2="241.63" y2="148.2" gradientTransform="translate(301.93 -94.8) rotate(75.32)" xlink:href="#linear-gradient"/><linearGradient id="linear-gradient-37" x1="179.32" y1="139.87" x2="242.07" y2="139.87" xlink:href="#linear-gradient"/><linearGradient id="linear-gradient-38" x1="183.08" y1="131.25" x2="241.6" y2="131.25" gradientTransform="translate(285.5 -107.41) rotate(75.32)" xlink:href="#linear-gradient"/><linearGradient id="linear-gradient-39" x1="330.49" y1="139.79" x2="393.27" y2="139.79" xlink:href="#linear-gradient"/><linearGradient id="linear-gradient-40" x1="334.43" y1="131.27" x2="392.78" y2="131.27" gradientTransform="translate(393.63 -254.13) rotate(74.6)" xlink:href="#linear-gradient"/><linearGradient id="linear-gradient-41" x1="275.84" y1="128.87" x2="338.59" y2="128.87" xlink:href="#linear-gradient"/><linearGradient id="linear-gradient-42" x1="276.4" y1="120.94" x2="333.52" y2="120.94" gradientTransform="translate(59.85 -97.12) rotate(20.03)" xlink:href="#linear-gradient"/><linearGradient id="linear-gradient-43" x1="219.05" y1="131.91" x2="281.07" y2="131.91" xlink:href="#linear-gradient"/><linearGradient id="linear-gradient-44" x1="219.35" y1="122.22" x2="279.03" y2="122.22" gradientTransform="translate(19.15 -33.07) rotate(7.9)" xlink:href="#linear-gradient"/><linearGradient id="linear-gradient-45" x1="352.2" y1="156.83" x2="414.72" y2="156.83" xlink:href="#linear-gradient"/><linearGradient id="linear-gradient-46" x1="352.78" y1="149.27" x2="408.89" y2="149.27" gradientTransform="translate(89.46 -137.81) rotate(23.17)" xlink:href="#linear-gradient"/><linearGradient id="linear-gradient-47" x1="292.12" y1="154.5" x2="354.09" y2="154.5" xlink:href="#linear-gradient"/><linearGradient id="linear-gradient-48" x1="294.09" y1="144.77" x2="353.8" y2="144.77" gradientTransform="translate(424.54 -195.49) rotate(82.39)" xlink:href="#linear-gradient"/><linearGradient id="linear-gradient-49" x1="209.27" y1="155.21" x2="271.23" y2="155.21" xlink:href="#linear-gradient"/><linearGradient id="linear-gradient-50" x1="211.23" y1="145.48" x2="270.95" y2="145.48" gradientTransform="translate(353.36 -112.75) rotate(82.39)" xlink:href="#linear-gradient"/><linearGradient id="linear-gradient-51" x1="409.02" y1="159.64" x2="471.79" y2="159.64" xlink:href="#linear-gradient"/><linearGradient id="linear-gradient-52" x1="409.57" y1="151.65" x2="466.84" y2="151.65" gradientTransform="translate(75.8 -137.63) rotate(19.51)" xlink:href="#linear-gradient"/><linearGradient id="linear-gradient-53" x1="115.07" y1="176.54" x2="175.23" y2="176.54" xlink:href="#linear-gradient"/><linearGradient id="linear-gradient-54" x1="115.07" y1="165.12" x2="175.23" y2="165.12" xlink:href="#linear-gradient"/><linearGradient id="linear-gradient-55" x1="131.67" y1="161.23" x2="191.83" y2="161.23" xlink:href="#linear-gradient"/><linearGradient id="linear-gradient-56" x1="131.67" y1="149.81" x2="191.83" y2="149.81" xlink:href="#linear-gradient"/><linearGradient id="linear-gradient-57" x1="156.05" y1="172.68" x2="216.03" y2="172.68" xlink:href="#linear-gradient"/><linearGradient id="linear-gradient-58" x1="156.56" y1="166.5" x2="207.43" y2="166.5" gradientTransform="translate(130.54 -74.74) rotate(35.51)" xlink:href="#linear-gradient"/><linearGradient id="linear-gradient-59" x1="197.37" y1="176.54" x2="257.53" y2="176.54" xlink:href="#linear-gradient"/><linearGradient id="linear-gradient-60" x1="197.37" y1="165.12" x2="257.53" y2="165.12" xlink:href="#linear-gradient"/><linearGradient id="linear-gradient-61" x1="238.52" y1="176.54" x2="298.68" y2="176.54" xlink:href="#linear-gradient"/><linearGradient id="linear-gradient-62" x1="238.52" y1="165.12" x2="298.68" y2="165.12" xlink:href="#linear-gradient"/><linearGradient id="linear-gradient-63" x1="279.67" y1="176.54" x2="339.83" y2="176.54" xlink:href="#linear-gradient"/><linearGradient id="linear-gradient-64" x1="279.67" y1="165.12" x2="339.83" y2="165.12" xlink:href="#linear-gradient"/><linearGradient id="linear-gradient-65" x1="320.33" y1="172.97" x2="382.05" y2="172.97" xlink:href="#linear-gradient"/><linearGradient id="linear-gradient-66" x1="327.43" y1="166.02" x2="381.47" y2="166.02" gradientTransform="translate(330.52 -224.65) rotate(61.4)" xlink:href="#linear-gradient"/><linearGradient id="linear-gradient-67" x1="360.66" y1="173.11" x2="422.85" y2="173.11" xlink:href="#linear-gradient"/><linearGradient id="linear-gradient-68" x1="361.25" y1="165.86" x2="416.39" y2="165.86" gradientTransform="translate(111.09 -152.82) rotate(25.83)" xlink:href="#linear-gradient"/><linearGradient id="linear-gradient-69" x1="402.11" y1="173.49" x2="464.85" y2="173.49" xlink:href="#linear-gradient"/><linearGradient id="linear-gradient-70" x1="407.2" y1="165.57" x2="464.29" y2="165.57" gradientTransform="translate(441.31 -300.54) rotate(69.88)" xlink:href="#linear-gradient"/><linearGradient id="linear-gradient-71" x1="442.8" y1="173.26" x2="505.31" y2="173.26" xlink:href="#linear-gradient"/><linearGradient id="linear-gradient-72" x1="443.39" y1="165.73" x2="499.44" y2="165.73" gradientTransform="translate(104.11 -173.07) rotate(23.32)" xlink:href="#linear-gradient"/><linearGradient id="linear-gradient-73" x1="486.31" y1="178.83" x2="549.08" y2="178.83" xlink:href="#linear-gradient"/><linearGradient id="linear-gradient-74" x1="490.21" y1="170.29" x2="548.59" y2="170.29" gradientTransform="translate(546.94 -375.62) rotate(74.74)" xlink:href="#linear-gradient"/><linearGradient id="linear-gradient-75" x1="244.44" y1="157.58" x2="306.74" y2="157.58" xlink:href="#linear-gradient"/><linearGradient id="linear-gradient-76" x1="250.73" y1="150.25" x2="306.14" y2="150.25" gradientTransform="translate(296.36 -165.63) rotate(64.9)" xlink:href="#linear-gradient"/><linearGradient id="linear-gradient-77" x1="10.88" y1="194.66" x2="469.65" y2="194.66" xlink:href="#linear-gradient"/><linearGradient id="linear-gradient-78" x1="160.24" y1="194.66" x2="619" y2="194.66" xlink:href="#linear-gradient"/><linearGradient id="linear-gradient-79" x1="344.96" y1="28.65" x2="382.94" y2="28.65" gradientTransform="matrix(1.5, -0.22, 0.95, 0.52, -202.68, 91.53)" xlink:href="#linear-gradient"/><linearGradient id="linear-gradient-80" x1="350.97" y1="20.15" x2="388.96" y2="20.15" gradientTransform="matrix(1.5, -0.22, 0.95, 0.52, -202.68, 91.53)" xlink:href="#linear-gradient"/><linearGradient id="linear-gradient-81" x1="365.9" y1="17.66" x2="377.49" y2="17.66" gradientTransform="matrix(1.25, -0.1, 0.46, 0.76, -101.08, 41.66)" xlink:href="#linear-gradient"/></defs><g id="Layer_2" data-name="Layer 2"><g id="OTHER_SHIT" data-name="OTHER SHIT"><polygon class="cls-1" points="485.82 174.22 10.88 174.22 80.88 15.71 525.82 15.71 485.82 174.22"/><path class="cls-2" d="M629.12,63.83S556.41-33,505.54,19s-19.72,155.22-19.72,155.22Z"/><path class="cls-3" d="M613.73,74.84S551.11-11.11,510.41,30.5s-14.13,134.87-14.13,134.87"/><polyline class="cls-4" points="629.12 63.83 64.36 66.08 64.36 4.17 545.15 4.17"/><line class="cls-5" x1="30.16" y1="19.62" x2="56.72" y2="126.14"/><polygon class="cls-6" points="49.28 215.1 460.35 215.1 475.58 395.16 113.52 395.16 49.28 215.1"/><polygon class="cls-7" points="187.49 215.1 598.56 215.1 543.79 395.16 251.73 395.16 187.49 215.1"/><path class="cls-8" d="M156.48,65.16S81.94-33.21,30.16,19.62,10.89,172.9,10.89,172.9Z"/><path class="cls-9" d="M187.08,66.08S156.51,19.79,112.45,4H67.78"/><path class="cls-9" d="M598.44,64.12S568.9,19.79,524.84,4H466.79"/><polyline class="cls-10" points="65.99 215.1 122.36 370.56 225.23 370.56 165.92 215.1"/><polyline class="cls-11" points="214.03 215.1 275.35 370.56 522.27 370.56 572.99 215.1"/><path class="cls-12" d="M142.29,75.71S89.66-2.4,48.23,39.87,19.88,166.25,19.88,166.25Z"/><path class="cls-13" d="M407.19,125.49l3.71,14.35c1.1,4.28,14,4.67,28.7.86s25.81-10.36,24.71-14.65L460.6,111.7Z"/><ellipse class="cls-14" cx="433.9" cy="118.59" rx="27.58" ry="8.01" transform="translate(-15.87 112.21) rotate(-14.47)"/><path class="cls-15" d="M444.72,135.57l-1.49,14.75c-.44,4.4,11.49,9.21,26.64,10.73s27.8-.81,28.25-5.21l1.48-14.75Z"/><ellipse class="cls-16" cx="472.16" cy="138.33" rx="8.01" ry="27.58" transform="translate(287.27 594.27) rotate(-84.26)"/><path class="cls-17" d="M357.91,87.05l-1.48,14.75c-.45,4.4,11.48,9.21,26.64,10.73s27.8-.81,28.24-5.21l1.48-14.75Z"/><ellipse class="cls-18" cx="385.35" cy="89.81" rx="8.01" ry="27.58" transform="translate(257.42 464.24) rotate(-84.26)"/><path class="cls-19" d="M207.07,116.07l2,14.68c.61,4.38,13.33,6.24,28.42,4.15s26.82-7.35,26.22-11.73l-2-14.68Z"/><ellipse class="cls-20" cx="234.39" cy="112.28" rx="27.58" ry="8.01" transform="translate(-13.2 33.26) rotate(-7.9)"/><path class="cls-21" d="M387.6,124l-3.94,14.29c-1.17,4.27,9.78,11,24.46,15s27.55,3.86,28.72-.4l3.94-14.29Z"/><ellipse class="cls-22" cx="414.19" cy="131.27" rx="8.01" ry="27.58" transform="translate(177.65 495.74) rotate(-74.6)"/><path class="cls-23" d="M383.74,121.67l4.86,14c1.45,4.18,14.3,3.52,28.68-1.48s24.88-12.45,23.42-16.63l-4.86-14Z"/><ellipse class="cls-24" cx="409.79" cy="112.62" rx="27.58" ry="8.01" transform="translate(-14.26 140.76) rotate(-19.16)"/><path class="cls-25" d="M311.29,97.19l-3.76,14.33c-1.12,4.29,9.92,10.89,24.65,14.75s27.59,3.51,28.71-.77l3.76-14.34Z"/><ellipse class="cls-26" cx="337.97" cy="104.17" rx="8.01" ry="27.58" transform="translate(151.56 404.72) rotate(-75.32)"/><path class="cls-27" d="M312.53,84.75l-3.76,14.34c-1.12,4.28,9.91,10.88,24.65,14.74s27.59,3.52,28.71-.76l3.75-14.34Z"/><ellipse class="cls-28" cx="339.21" cy="91.74" rx="8.01" ry="27.58" transform="translate(164.51 396.63) rotate(-75.32)"/><path class="cls-29" d="M350.43,113.74l-3.75,14.34c-1.12,4.28,9.91,10.88,24.65,14.74s27.58,3.52,28.71-.76l3.75-14.34Z"/><ellipse class="cls-30" cx="377.11" cy="120.73" rx="8.01" ry="27.58" transform="translate(164.77 454.95) rotate(-75.32)"/><path class="cls-31" d="M350.2,116.11l5,13.94c1.5,4.17,14.34,3.36,28.67-1.79s24.74-12.71,23.24-16.88l-5-13.94Z"/><ellipse class="cls-32" cx="376.15" cy="106.77" rx="27.58" ry="8.01" transform="translate(-13.94 133.62) rotate(-19.78)"/><path class="cls-33" d="M257.37,98.91l-3.76,14.34c-1.12,4.28,9.92,10.88,24.65,14.74s27.59,3.52,28.71-.76l3.76-14.34Z"/><ellipse class="cls-34" cx="284.05" cy="105.9" rx="8.01" ry="27.58" transform="matrix(0.25, -0.97, 0.97, 0.25, 109.63, 353.84)"/><path class="cls-35" d="M255.49,96.72l3.62,14.38c1.07,4.29,13.92,4.76,28.7,1.05s25.87-10.21,24.79-14.5L309,83.28Z"/><ellipse class="cls-36" cx="282.24" cy="90" rx="27.58" ry="8.01" transform="translate(-13.43 71.52) rotate(-14.11)"/><path class="cls-37" d="M185.7,141.21l-3.76,14.34c-1.12,4.28,9.92,10.88,24.65,14.74s27.59,3.52,28.71-.76l3.76-14.34Z"/><ellipse class="cls-38" cx="212.38" cy="148.2" rx="8.01" ry="27.58" transform="translate(15.2 316.1) rotate(-75.32)"/><path class="cls-39" d="M185.66,124.26,181.9,138.6c-1.12,4.28,9.92,10.88,24.65,14.74s27.59,3.52,28.71-.76L239,138.24Z"/><ellipse class="cls-40" cx="212.34" cy="131.25" rx="8.01" ry="27.58" transform="translate(31.57 303.4) rotate(-75.32)"/><path class="cls-41" d="M337,124l-3.93,14.29c-1.18,4.27,9.78,11,24.46,15s27.54,3.86,28.72-.4l3.93-14.29Z"/><ellipse class="cls-42" cx="363.6" cy="131.27" rx="8.01" ry="27.58" transform="translate(140.5 446.97) rotate(-74.6)"/><path class="cls-43" d="M279.05,130.38l5.07,13.93c1.52,4.16,14.35,3.3,28.66-1.92s24.68-12.81,23.17-17l-5.08-13.93Z"/><ellipse class="cls-44" cx="304.96" cy="120.94" rx="27.58" ry="8.01" transform="matrix(0.94, -0.34, 0.34, 0.94, -22.98, 111.75)"/><path class="cls-45" d="M221.87,126l2,14.68c.61,4.39,13.33,6.24,28.42,4.15s26.82-7.34,26.21-11.73l-2-14.68Z"/><ellipse class="cls-46" cx="249.19" cy="122.22" rx="27.58" ry="8.01" transform="translate(-14.43 35.39) rotate(-7.9)"/><path class="cls-47" d="M355.48,160.12l5.83,13.63c1.74,4.07,14.51,2.51,28.51-3.48s23.94-14.16,22.2-18.22l-5.83-13.63Z"/><ellipse class="cls-48" cx="380.83" cy="149.27" rx="27.58" ry="8.01" transform="translate(-28.01 161.9) rotate(-23.17)"/><path class="cls-49" d="M296.61,141.11l-2,14.69c-.58,4.39,11.18,9.58,26.28,11.6s27.81.1,28.4-4.29l2-14.69Z"/><ellipse class="cls-50" cx="323.94" cy="144.77" rx="8.01" ry="27.58" transform="translate(137.56 446.69) rotate(-82.39)"/><path class="cls-51" d="M213.75,141.82l-2,14.7c-.59,4.38,11.18,9.57,26.27,11.59s27.82.1,28.4-4.29l2-14.69Z"/><ellipse class="cls-52" cx="241.09" cy="145.48" rx="8.01" ry="27.58" transform="matrix(0.13, -0.99, 0.99, 0.13, 64.97, 365.18)"/><path class="cls-53" d="M412.21,160.86l5,14c1.48,4.17,14.31,3.43,28.67-1.66s24.8-12.59,23.32-16.76l-4.95-14Z"/><ellipse class="cls-54" cx="438.2" cy="151.65" rx="27.58" ry="8.01" transform="translate(-25.49 155.05) rotate(-19.51)"/><path class="cls-55" d="M117.57,165.12v14.82c0,4.43,12.34,8,27.58,8s27.58-3.59,27.58-8V165.12Z"/><ellipse class="cls-56" cx="145.15" cy="165.12" rx="27.58" ry="8.01"/><path class="cls-57" d="M134.17,149.81v14.82c0,4.42,12.35,8,27.58,8s27.58-3.59,27.58-8V149.81Z"/><ellipse class="cls-58" cx="161.75" cy="149.81" rx="27.58" ry="8.01"/><path class="cls-59" d="M159.54,182.52l8.61,12.06c2.57,3.6,14.71-.65,27.11-9.49s20.36-18.94,17.79-22.54l-8.61-12.07Z"/><ellipse class="cls-60" cx="181.99" cy="166.5" rx="27.58" ry="8.01" transform="translate(-62.86 136.65) rotate(-35.51)"/><path class="cls-61" d="M199.87,165.12v14.82c0,4.43,12.35,8,27.58,8s27.58-3.59,27.58-8V165.12Z"/><ellipse class="cls-62" cx="227.45" cy="165.12" rx="27.58" ry="8.01"/><path class="cls-63" d="M241,165.12v14.82c0,4.43,12.35,8,27.58,8s27.58-3.59,27.58-8V165.12Z"/><ellipse class="cls-64" cx="268.6" cy="165.12" rx="27.58" ry="8.01"/><path class="cls-65" d="M282.17,165.12v14.82c0,4.43,12.35,8,27.58,8s27.58-3.59,27.58-8V165.12Z"/><ellipse class="cls-66" cx="309.75" cy="165.12" rx="27.58" ry="8.01"/><path class="cls-67" d="M330.23,152.82l-7.09,13c-2.12,3.89,7,12.95,20.37,20.24s25.94,10.06,28.05,6.17l7.1-13Z"/><ellipse class="cls-68" cx="354.45" cy="166.02" rx="8.01" ry="27.58" transform="translate(39 397.73) rotate(-61.4)"/><path class="cls-69" d="M364,177.88l6.45,13.34c1.93,4,14.61,1.83,28.32-4.8S422,171.17,420.1,167.19l-6.45-13.34Z"/><ellipse class="cls-70" cx="388.82" cy="165.86" rx="27.58" ry="8.01" transform="translate(-33.42 185.95) rotate(-25.83)"/><path class="cls-71" d="M409.85,156.08,404.75,170c-1.52,4.16,8.84,11.77,23.14,17s27.13,6.12,28.66,2l5.09-13.92Z"/><ellipse class="cls-72" cx="435.75" cy="165.57" rx="8.01" ry="27.58" transform="translate(130.38 517.77) rotate(-69.88)"/><path class="cls-73" d="M446.09,176.64,452,190.25c1.75,4.07,14.51,2.48,28.5-3.55s23.9-14.22,22.15-18.28l-5.87-13.61Z"/><ellipse class="cls-74" cx="471.42" cy="165.73" rx="27.58" ry="8.01" transform="translate(-27.09 200.15) rotate(-23.32)"/><path class="cls-75" d="M492.8,163l-3.91,14.3c-1.16,4.27,9.81,11,24.5,15s27.55,3.8,28.72-.47l3.9-14.3Z"/><ellipse class="cls-76" cx="519.4" cy="170.29" rx="8.01" ry="27.58" transform="translate(218.37 626.53) rotate(-74.74)"/><path class="cls-77" d="M253.46,138.55,247.17,152c-1.87,4,7.79,12.49,21.58,19s26.49,8.45,28.37,4.44L303.41,162Z"/><ellipse class="cls-78" cx="278.44" cy="150.25" rx="8.01" ry="27.58" transform="translate(24.25 338.64) rotate(-64.9)"/><rect class="cls-79" x="10.88" y="174.22" width="458.76" height="40.88"/><rect class="cls-80" x="160.24" y="174.22" width="458.76" height="40.88"/><path class="cls-81" d="M385.84,43.12l-7.37.59c-8.73.71-18.52-3.07-21.74-8.4L346.17,17.87c-3.22-5.32,1.29-10.25,10-11l7.37-.59c8.74-.71,18.52,3.07,21.74,8.4l10.56,17.44C399.09,37.48,394.58,42.41,385.84,43.12Z"/><path class="cls-82" d="M386.84,37.31l-7.37.59c-8.73.71-18.52-3.07-21.74-8.4L347.17,12.06c-3.22-5.32,1.29-10.25,10-11l7.37-.59c8.74-.71,18.52,3.07,21.74,8.4l10.56,17.44C400.09,31.67,395.58,36.6,386.84,37.31Z"/><path class="cls-83" d="M370.84,26.52l6.23-.5,6.23-.51-6.31-5-1.71-1.36c2.48-.91,3.4-3,2-5.3C375.57,11,370.93,9,366.93,9.27s-5.85,2.89-4.13,5.73c1.38,2.28,4.64,4.05,7.94,4.49l0,1.5.08,5.53"/></g></g></svg>