<svg xmlns="http://www.w3.org/2000/svg" xmlns:xlink="http://www.w3.org/1999/xlink" viewBox="0 0 709.37 533.46"><defs><style>.cls-1,.cls-10,.cls-11,.cls-12,.cls-13,.cls-2,.cls-20,.cls-21,.cls-3,.cls-4,.cls-5,.cls-6,.cls-7,.cls-8,.cls-9{stroke:#ffcfe2;}.cls-1,.cls-10,.cls-11,.cls-12,.cls-13,.cls-14,.cls-15,.cls-16,.cls-17,.cls-2,.cls-20,.cls-21,.cls-3,.cls-4,.cls-5,.cls-6,.cls-7,.cls-8,.cls-9{stroke-miterlimit:10;}.cls-1,.cls-10,.cls-11,.cls-12,.cls-13,.cls-2,.cls-3,.cls-4,.cls-5,.cls-6,.cls-7,.cls-8,.cls-9{stroke-width:1.64px;}.cls-1{fill:url(#linear-gradient);}.cls-2{fill:url(#linear-gradient-2);}.cls-3{fill:url(#linear-gradient-3);}.cls-4{fill:url(#linear-gradient-4);}.cls-5{fill:url(#linear-gradient-5);}.cls-6{fill:url(#linear-gradient-6);}.cls-7{fill:url(#linear-gradient-7);}.cls-8{fill:url(#linear-gradient-8);}.cls-9{fill:url(#linear-gradient-9);}.cls-10{fill:url(#linear-gradient-10);}.cls-11{fill:url(#linear-gradient-11);}.cls-12{fill:url(#linear-gradient-12);}.cls-13{fill:url(#linear-gradient-13);}.cls-14,.cls-15,.cls-16,.cls-17,.cls-18{fill:#ffcfe2;}.cls-14,.cls-15,.cls-16,.cls-17{stroke-width:1.63px;}.cls-14{stroke:url(#linear-gradient-14);}.cls-15{stroke:url(#linear-gradient-15);}.cls-16{stroke:url(#linear-gradient-16);}.cls-17{stroke:url(#linear-gradient-17);}.cls-19{fill:url(#linear-gradient-18);}.cls-20,.cls-21{stroke-width:0.59px;}.cls-20{fill:url(#linear-gradient-19);}.cls-21{fill:url(#linear-gradient-20);}</style><linearGradient id="linear-gradient" x1="194.35" y1="108.66" x2="196.14" y2="108.66" gradientUnits="userSpaceOnUse"><stop offset="0" stop-color="#000914"/><stop offset="1" stop-color="#0f132b"/></linearGradient><linearGradient id="linear-gradient-2" x1="538.78" y1="275.11" x2="539.1" y2="275.11" xlink:href="#linear-gradient"/><linearGradient id="linear-gradient-3" x1="255.74" y1="276.76" x2="255.94" y2="276.76" xlink:href="#linear-gradient"/><linearGradient id="linear-gradient-4" x1="488.42" y1="286.18" x2="540.5" y2="278.16" xlink:href="#linear-gradient"/><linearGradient id="linear-gradient-5" x1="1.32" y1="101.1" x2="699.25" y2="101.1" gradientTransform="matrix(0.87, -0.13, 0.15, 0.99, 58.54, 184.52)" xlink:href="#linear-gradient"/><linearGradient id="linear-gradient-6" x1="-39.08" y1="174.41" x2="711.78" y2="174.41" gradientTransform="matrix(0.87, -0.13, 0.15, 0.99, 58.54, 184.52)" xlink:href="#linear-gradient"/><linearGradient id="linear-gradient-7" x1="212.5" y1="331.41" x2="703.63" y2="255.73" xlink:href="#linear-gradient"/><linearGradient id="linear-gradient-8" x1="174.57" y1="295.46" x2="256.78" y2="282.79" xlink:href="#linear-gradient"/><linearGradient id="linear-gradient-9" x1="-40.04" y1="132.43" x2="720.77" y2="132.43" gradientTransform="matrix(0.87, -0.13, 0.15, 0.99, 58.54, 184.52)" xlink:href="#linear-gradient"/><linearGradient id="linear-gradient-10" x1="-13.99" y1="260.63" x2="523.99" y2="177.74" xlink:href="#linear-gradient"/><linearGradient id="linear-gradient-11" x1="-18.64" y1="31.89" x2="675.98" y2="31.89" gradientTransform="matrix(0.87, -0.13, 0.15, 0.99, 58.54, 184.52)" xlink:href="#linear-gradient"/><linearGradient id="linear-gradient-12" x1="43.22" y1="177.57" x2="267.57" y2="143" xlink:href="#linear-gradient"/><linearGradient id="linear-gradient-13" x1="0.82" y1="271.14" x2="2314.3" y2="271.14" xlink:href="#linear-gradient"/><linearGradient id="linear-gradient-14" x1="289.15" y1="169.83" x2="322.94" y2="164.62" xlink:href="#linear-gradient"/><linearGradient id="linear-gradient-15" x1="371.88" y1="221.66" x2="404.85" y2="216.58" xlink:href="#linear-gradient"/><linearGradient id="linear-gradient-16" x1="360.02" y1="168.73" x2="391.08" y2="163.94" xlink:href="#linear-gradient"/><linearGradient id="linear-gradient-17" x1="313.15" y1="228.83" x2="346.77" y2="223.65" xlink:href="#linear-gradient"/><linearGradient id="linear-gradient-18" x1="317.54" y1="203.44" x2="380.43" y2="193.75" xlink:href="#linear-gradient"/><linearGradient id="linear-gradient-19" x1="333.72" y1="195.64" x2="351.47" y2="192.9" xlink:href="#linear-gradient"/><linearGradient id="linear-gradient-20" x1="362.01" y1="198.47" x2="371.55" y2="197" xlink:href="#linear-gradient"/></defs><g id="Layer_2" data-name="Layer 2"><g id="OTHER_SHIT" data-name="OTHER SHIT"><path class="cls-1" d="M196.14,111.57l-1.79-5.82A28.67,28.67,0,0,0,196.14,111.57Z"/><path class="cls-2" d="M539.1,276.05a5.49,5.49,0,0,0-.32-1.87l.32,1.87Z"/><path class="cls-3" d="M255.74,276.05l.16,1.42A2.4,2.4,0,0,0,255.74,276.05Z"/><path class="cls-4" d="M539.1,276.05h0l-.32-1.87c-1.15-3.26-5.61-6.27-15.77-8.7a59.33,59.33,0,0,0-13.39-1.14l13.27,35.11C521.75,293.7,539.09,284.29,539.1,276.05Z"/><path class="cls-5" d="M523,265.48c10.16,2.43,14.62,5.44,15.77,8.7l-3.08-18c-14.55-2.11-25.91-5.95-31.68-12.95-21.26-25.79,19.06-48.34,14.91-85l-.62-3.64-45.38,12.68,36.69,97A59.33,59.33,0,0,1,523,265.48Z"/><path class="cls-6" d="M542.64,296.26l-3.54-20.21c0,8.24-17.35,17.65-16.21,23.4l.31.84Z"/><path class="cls-7" d="M535.7,256.2l3.08,18a5.49,5.49,0,0,1,.32,1.87c0,8.24-17.35,17.65-16.21,23.4a2.62,2.62,0,0,0,.31.83h0c.7,1.23,2.46,2.25,5.7,3,25,5.89,155.55-31.79,178.56-22.74C688.09,247.8,589.82,264,535.7,256.2Z"/><path class="cls-8" d="M255.9,277.47l-.16-1.42c-.71-1.64-3.26-3.2-8.33-4.67-9.92-2.87-26.83.67-46.09,7.27l6.86,27.43h0C208,296.6,254.32,286.14,255.9,277.47Z"/><path class="cls-9" d="M255.9,277.47c-1.58,8.67-47.88,19.13-47.72,28.61l50.08-7.92Z"/><path class="cls-10" d="M535.7,256.2l-16.77-97.95c-1.16-10.28-5.83-21.69-16.35-34.58-33.84-41.49-182.52-6.66-272.9.7l26.06,151.68a2.4,2.4,0,0,1,.16,1.42c-1.58,8.67-47.88,19.13-47.72,28.61a4.15,4.15,0,0,0,1.89,3.11c14.56,11.6,231.94-44.62,299.55-44.85A59.33,59.33,0,0,1,523,265.48c10.16,2.43,14.62,5.44,15.77,8.7Z"/><path class="cls-11" d="M247.41,271.38c5.07,1.47,7.62,3,8.33,4.67h0L229.68,124.37c-37.82,3.08-65.44,1.35-70.15-12.8l41.79,167.08C220.58,272.05,237.49,268.51,247.41,271.38Z"/><path class="cls-12" d="M229.68,124.37,215.35,40.93c.47-6.22-2-13.68-8.77-23C173.7-27.31,57.19,29.47,23.16,47.41l69.93,282c18.84-10.45,68.52-37.14,108.23-50.77,19.26-6.6,36.17-10.14,46.09-7.27,5.07,1.47,7.62,3,8.33,4.67Z"/><path class="cls-13" d="M159.53,522,27.45,19.14a13.53,13.53,0,0,0-19.3-8.59h0A13.53,13.53,0,0,0,1.3,26.14L139.45,533.25"/><path class="cls-14" d="M317.85,181.21l-12.37-7s-7.24,6.38-12,1.9-3.52-6.74-1.48-9.57,6.44-2.3,6.44-2.3-3.7-5.86-1.05-9.86,8.12-1.28,11.09,2.06,2,10.08,2,10.08l13.5,8.33"/><path class="cls-15" d="M376.81,204.83l12,7.79s7.87-5.68,12.36-.91,3,6.88.71,9.49-6.73,1.75-6.73,1.75,3.27,6,.25,9.74-8.35.61-11.08-2.89-1.21-10-1.21-10l-12.2-8.25"/><path class="cls-16" d="M361.6,175.44l7.39-8.86s-6.37-9.86-1.68-12.49,7-.39,9.83,2.85a9.54,9.54,0,0,1,2.21,7.26s6.08-1,10.11,3.39,1.14,8.44-2.34,9.82-10.36-2.56-10.36-2.56l-5.92,6.56"/><path class="cls-17" d="M345.21,217l-9.67,11.11s6.37,9.86,1.68,12.49-7,.39-9.83-2.85a9.54,9.54,0,0,1-2.21-7.26s-6.08,1-10.11-3.39-1.14-8.44,2.34-9.82,10.37,2.56,10.37,2.56l10.15-11.17"/><path class="cls-18" d="M345.63,172.47c-8.75-1.28-35,1.46-24.3,19.44s23,18.61,23,18.61l1.06,7.81s-.26,2.81,4.23,3.34,3.11-2.44,4.6-2.29.88,2.52,5.1,3.26,3.52-2.73,4.86-2.59.39,3.32,4.55,3.55S370,211.54,370,211.54s9.25-5.12,5.31-18.44C375.32,193.1,381.31,177.68,345.63,172.47Z"/><path class="cls-19" d="M341.3,172.2a31.06,31.06,0,0,1,4.33.27c35.68,5.21,29.69,20.63,29.69,20.63,3.94,13.32-5.31,18.44-5.31,18.44s2.83,12.07-1.16,12.07h-.11c-4.16-.23-3.21-3.42-4.55-3.56h-.07c-1.12,0-.75,2.71-3.69,2.71a6.59,6.59,0,0,1-1.1-.11c-4.22-.74-3.61-3.12-5.1-3.26h-.11c-1.21,0-.3,2.37-3.5,2.37a7.29,7.29,0,0,1-1-.07c-4.49-.53-4.23-3.34-4.23-3.34l-1.06-7.81s-12.32-.62-23-18.61c-9.26-15.57,9.19-19.71,20-19.71m0-4.08c-3.22,0-19.58.48-25,9.93-1.78,3.14-3,8.45,1.48,15.95,4.81,8.1,10.56,14,17.07,17.55a28.47,28.47,0,0,0,5.8,2.4l.63,4.64c.07,2.71,2.1,6.46,7.83,7.13a12.72,12.72,0,0,0,1.47.09,7.42,7.42,0,0,0,3.66-.85,11.64,11.64,0,0,0,6.15,1.87,7.24,7.24,0,0,0,3.35-.77,8.27,8.27,0,0,0,4.73,1.62h.34a5.64,5.64,0,0,0,4.49-2.18c2.26-2.85,1.9-8.21,1.18-12.3a17.69,17.69,0,0,0,3.09-3.75c2-3.24,3.9-8.67,1.93-16.4a14,14,0,0,0-1.8-9.8c-4.32-7.41-14.93-12.4-31.52-14.83a35.85,35.85,0,0,0-4.92-.31Z"/><path class="cls-20" d="M348.43,189.07c4.11,4.2,4.76,10,1.47,13s-9.31,2-13.42-2.24-4.22-14.14-2.44-14.19,10.28-.75,14.39,3.45"/><path class="cls-21" d="M363.61,191.58c-1.94,2.59-2.18,7.36-.55,10.67s4.54,3.88,6.48,1.29,1.88-11,1-11.47-5-3.08-6.94-.49"/></g></g></svg>