<svg xmlns="http://www.w3.org/2000/svg" xmlns:xlink="http://www.w3.org/1999/xlink" viewBox="0 0 612.15 212.22"><defs><style>.cls-1,.cls-3,.cls-4,.cls-5{stroke:#ffcfe2;stroke-width:1.64px;}.cls-1,.cls-2,.cls-3,.cls-4,.cls-5{stroke-miterlimit:10;}.cls-1{fill:url(#linear-gradient);}.cls-2{fill:#ffcfe2;stroke-width:7px;stroke:url(#linear-gradient-2);}.cls-3{fill:url(#linear-gradient-3);}.cls-4{fill:url(#linear-gradient-4);}.cls-5{fill:none;}</style><linearGradient id="linear-gradient" x1="157.51" y1="105.6" x2="483.55" y2="105.6" gradientUnits="userSpaceOnUse"><stop offset="0" stop-color="#000914"/><stop offset="1" stop-color="#0f132b"/></linearGradient><linearGradient id="linear-gradient-2" x1="139.3" y1="195.61" x2="493.48" y2="195.61" xlink:href="#linear-gradient"/><linearGradient id="linear-gradient-3" x1="0.81" y1="105.66" x2="611.33" y2="105.66" xlink:href="#linear-gradient"/><linearGradient id="linear-gradient-4" x1="0.82" y1="62.74" x2="611.33" y2="62.74" xlink:href="#linear-gradient"/></defs><g id="Layer_2" data-name="Layer 2"><g id="OTHER_SHIT" data-name="OTHER SHIT"><path class="cls-1" d="M157.51,174.72s9-135.52,169.22-138.2,156.82,138.2,156.82,138.2Z"/><path class="cls-2" d="M159.38,185.09s-17.51,8.9-16.54,23.63H489.53s4.87-17.8-17.52-23.63S159.38,185.09,159.38,185.09Z"/><path class="cls-3" d="M383.49,112.4C329.16,126,319.07,98.8,272.35,34.21,233.11-20,58.91,60.25,4.17,87.33c23.78,40,166,108.92,166,108.92h292s115-72.41,143.07-117.87C563.67,41.73,473.1,17.09,445.68,15.11,416.58,13,437.81,98.8,383.49,112.4Z"/><path class="cls-4" d="M602.3,47.81C553.47,22.47,520.54,10.87,459.22,1.42S432,97.75,362.87,98.88,308.36,11.08,223.69,2,54.33,38.61,7.61,66.69c-8.2,4.93-8.5,12.13-3.44,20.64C58.91,60.25,234.11-13,273.35,41.21,320.07,105.8,328.16,135,382.49,121.4S416.58,13,445.68,15.11c27.42,2,118,26.62,159.53,63.27C613.46,65,614.2,54,602.3,47.81Z"/><path class="cls-3" d="M383.49,112.4C329.16,126,319.07,98.8,272.35,34.21,233.11-20,58.91,60.25,4.17,87.33c23.78,40,166,108.92,166,108.92h292s115-72.41,143.07-117.87C563.67,41.73,473.1,17.09,445.68,15.11,416.58,13,437.81,98.8,383.49,112.4Z"/><path class="cls-5" d="M602.3,47.81C553.47,22.47,520.54,10.87,459.22,1.42S432,97.75,362.87,98.88,308.36,11.08,223.69,2,54.33,38.61,7.61,66.69c-8.2,4.93-8.5,12.13-3.44,20.64,23.78,40,166,108.92,166,108.92h292s115-72.41,143.07-117.87C613.46,65,614.2,54,602.3,47.81Z"/></g></g></svg>