<svg xmlns="http://www.w3.org/2000/svg" xmlns:xlink="http://www.w3.org/1999/xlink" viewBox="0 0 408.05 351.55"><defs><style>.cls-1,.cls-3,.cls-4,.cls-5,.cls-7,.cls-8{stroke:#ffcfe2;}.cls-1,.cls-2,.cls-3,.cls-4,.cls-5,.cls-6,.cls-7,.cls-8{stroke-miterlimit:10;}.cls-1,.cls-5{stroke-width:1.67px;}.cls-1{fill:url(#linear-gradient);}.cls-2,.cls-6{fill:#ffcfe2;stroke-width:7px;}.cls-2{stroke:url(#linear-gradient-2);}.cls-3,.cls-4,.cls-7,.cls-8{stroke-width:1.64px;}.cls-3{fill:url(#linear-gradient-3);}.cls-4{fill:url(#linear-gradient-4);}.cls-5{fill:url(#linear-gradient-5);}.cls-6{stroke:url(#linear-gradient-6);}.cls-7{fill:url(#linear-gradient-7);}.cls-8{fill:url(#linear-gradient-8);}</style><linearGradient id="linear-gradient" x1="61.45" y1="407.37" x2="155.52" y2="407.37" gradientTransform="translate(30.62 -94.05) rotate(10.92)" gradientUnits="userSpaceOnUse"><stop offset="0" stop-color="#000914"/><stop offset="1" stop-color="#0f132b"/></linearGradient><linearGradient id="linear-gradient-2" x1="93.05" y1="145.09" x2="408.05" y2="145.09" gradientTransform="matrix(1, 0, 0, 1, 0, 0)" xlink:href="#linear-gradient"/><linearGradient id="linear-gradient-3" x1="3.5" y1="305.64" x2="90.06" y2="305.64" gradientTransform="matrix(1, 0, 0, 1, 0, 0)" xlink:href="#linear-gradient"/><linearGradient id="linear-gradient-4" x1="-119.46" y1="73.13" x2="-89.65" y2="73.13" gradientTransform="translate(168.54 208.56) scale(0.74 1)" xlink:href="#linear-gradient"/><linearGradient id="linear-gradient-5" x1="959.19" y1="234.19" x2="1053.26" y2="234.19" gradientTransform="matrix(-0.98, 0.19, 0.19, 0.98, 1291.72, -94.05)" xlink:href="#linear-gradient"/><linearGradient id="linear-gradient-6" x1="315" y1="145.09" x2="0" y2="145.09" gradientTransform="matrix(1, 0, 0, 1, 0, 0)" xlink:href="#linear-gradient"/><linearGradient id="linear-gradient-7" x1="917.79" y1="305.64" x2="1004.35" y2="305.64" gradientTransform="matrix(-1, 0, 0, 1, 1322.34, 0)" xlink:href="#linear-gradient"/><linearGradient id="linear-gradient-8" x1="977.6" y1="495.82" x2="1007.41" y2="495.82" gradientTransform="matrix(0.74, 0, 0, -1, -416.68, 777.51)" xlink:href="#linear-gradient"/></defs><g id="Layer_2" data-name="Layer 2"><g id="OTHER_SHIT" data-name="OTHER SHIT"><path class="cls-1" d="M109,320.83c-3.77,3.16-4.22,18.76-39.69,28.11s-57.45-21.21-57.45-21.21l22.66-5.07s2.66,15.22,28.19,9.76S97.36,307.8,97.36,307.8Z"/><path class="cls-2" d="M97.75,270.52S357.26,122.52,375.65,9c0,0,53.13,75.53,15.32,123.55s-285,153.11-285,153.11Z"/><path class="cls-3" d="M80.67,277.53,10.91,316.87s-8.47,5.1-7.3,15.32,86.45-33,86.45-33Z"/><rect class="cls-4" x="80.26" y="233" width="22.03" height="97.38" rx="11.02" transform="translate(-119.89 74.11) rotate(-27.54)"/><path class="cls-5" d="M299.07,320.83c3.77,3.16,4.22,18.76,39.69,28.11s57.45-21.21,57.45-21.21l-22.66-5.07s-2.66,15.22-28.19,9.76-34.67-24.62-34.67-24.62Z"/><path class="cls-6" d="M310.3,270.52S50.79,122.52,32.4,9c0,0-53.12,75.53-15.32,123.55S302.13,285.7,302.13,285.7Z"/><path class="cls-7" d="M327.38,277.53l69.76,39.34s8.47,5.1,7.3,15.32-86.45-33-86.45-33Z"/><rect class="cls-8" x="305.76" y="233" width="22.03" height="97.38" rx="11.02" transform="translate(467.44 677.93) rotate(-152.46)"/></g></g></svg>